<?xml version="1.0" encoding="utf-8"?>
<!-- Generator: Adobe Illustrator 17.0.0, SVG Export Plug-In . SVG Version: 6.00 Build 0)  -->
<!DOCTYPE svg PUBLIC "-//W3C//DTD SVG 1.1//EN" "http://www.w3.org/Graphics/SVG/1.1/DTD/svg11.dtd">
<svg version="1.1" id="Layer_1" xmlns="http://www.w3.org/2000/svg" xmlns:xlink="http://www.w3.org/1999/xlink" x="0px" y="0px"
	 width="210.22px" height="77.424px" viewBox="0 0 210.22 77.424" enable-background="new 0 0 210.22 77.424" xml:space="preserve">
<path fill="#FFFFFF" d="M14.608,28.348c7.683,0.485,20.154-3.331,25.437-8.789c4.836-4.996,5.983-8.005,6.037-10.441
	c0.074-3.238-2.136-4.42-2.809-4.735C39.748,2.784,32.017,3.075,26.17,14.586c-2.281,4.45-4.042,9.769-4.603,11.753
	c-2.416,0.475-4.21,0.592-6.267-0.463c-1.118-0.573-1.896-0.56-2.399,0.223C12.399,26.881,12.654,28.179,14.608,28.348z
	 M32.407,11.445c4.086-6.219,8.792-7.355,9.675-5.341c0.882,2.01-0.635,6.866-4.317,11.083c-3.68,4.216-10.544,7.86-12.002,8.267
	C25.807,25.322,28.322,17.664,32.407,11.445z M56.832,67.753c-0.795-0.72-1.786-0.437-3.35,1.159
	c-3.737,3.52-12.074,3.096-16.386,1.245c-10.97-4.706-13.661-10.451-24.957-15.881c6.608-7.617,10.494-18.004,12.789-25.938
	c-1.024,0.388-2.813,0.83-4.222,1.016c-0.419,2.767-5.492,16.264-11.355,23.244c-2.791-2.094-4.544-1.346-5.145-0.387
	c-0.848,1.354-0.094,4.033,5.843,4.566c6.241,2.937,10.677,7.269,16.848,11.298c13.25,8.652,23.207,5.559,28.502,2.69
	C57.339,69.713,57.416,68.282,56.832,67.753z M153.189,50.219c-0.918,2.247-3.244,2.973-4.052,2.888
	c-1.051-0.112-1.838-0.94-1.463-2.497c0.248-1.02,0.493-1.888,0.743-2.686c1.64-4.415,3.451-9.399,3.914-11.138
	c0.901-3.369-0.667-5.685-2.741-6.089c-1.642-0.319-4.055,0.343-5.717,1.448c-1.666,1.105-3.995,3.489-4.768,4.931
	c1.342-5.207-1.569-7.293-5.26-6.15c-2.109,0.652-3.874,2.184-5.29,3.776c-0.791,0.889-1.578,1.938-2.022,2.628
	c0.138-0.518,0.606-2.601,0.689-3.795c0.093-1.255-0.609-2.533-1.622-2.82c-0.959-0.271-2.156-0.148-3.276,0.539v-0.008
	c-0.046,0.029-0.093,0.06-0.139,0.092c-0.012,0.007-0.025,0.013-0.037,0.022c-0.015,0.01-0.027,0.02-0.04,0.028
	c-1.485,0.998-2.344,2.332-3.122,3.493c-0.18,0.272-0.284,0.416-0.075,0.537c0.279,0.162,0.635-0.047,0.814-0.182
	c0.297-0.224,1.068-1.435,2.29-2.088c1.176-0.63,2.23-0.626,0.583,3.916c-1.769,4.879-6.96,18.528-6.96,18.528h4.185
	c0,0,2.638-7.258,4.917-12.988c2.278-5.731,6.024-8.5,8.261-9.304c3.055-1.019,2.789,2.791,1.412,6.467
	c-1.325,3.538-6.031,15.853-6.031,15.853h4.225l4.938-13.016c2.278-5.731,6.083-8.5,8.32-9.304c2.068-0.689,3.45,1.086,1.284,6.738
	c-0.42,1.202-1.022,2.739-2.419,6.42c-1.398,3.681-1.611,5.145-1.67,6.31c-0.093,1.84,0.923,2.902,2.766,3.118
	c2.887,0.337,7.016-2.344,7.773-4.834c0.11-0.371,0.156-0.535-0.045-0.936C153.463,49.932,153.351,49.832,153.189,50.219z
	 M38.894,31.251c-2.9,1.176-6.784,3.694-10.51,11.201c-1.184,2.436-2.036,5.436-1.562,8.194c0.678,3.931,4.083,6.002,7.822,4.643
	c1.315-0.478,3.493-1.72,4.567-2.606c1.615-1.332,2.348-2.093,3.579-3.782c-0.084,0.292-0.624,2.731-0.681,3.895
	c-0.093,1.84,0.921,2.901,2.764,3.118c2.888,0.338,7.031-2.543,7.786-5.034c0.112-0.371,0.157-0.534-0.042-0.938
	c-0.09-0.183-0.2-0.282-0.364,0.106c-0.919,2.246-3.259,3.172-4.067,3.087c-1.05-0.112-1.838-0.938-1.461-2.496
	c0.666-2.758,1.219-4.364,2.039-6.528c1.151-3.043,4.833-12.795,4.833-12.795l-4.178-0.001c0,0-1.029,2.691-1.162,3.076
	c-0.099-0.646-0.285-1.355-0.719-1.943c-0.624-0.839-1.507-1.39-3.013-1.732C43.021,30.378,40.51,30.593,38.894,31.251z
	 M46.907,34.908c0.348,1.4-0.039,3.114-0.039,3.114s-2.165,5.75-2.521,6.681c-1.24,2.456-3.637,5.055-5.218,6.175
	c-1.579,1.119-3.259,1.778-4.387,1.865c-2.017,0.157-3.111-1.148-3.497-3.011c-0.386-1.863-0.253-3.482,1.383-6.996
	c1.632-3.516,4.462-6.903,6.54-8.578c1.817-1.521,3.563-1.932,4.764-1.826C45.352,32.462,46.557,33.509,46.907,34.908z
	 M204.426,31.123c-1.197-0.612-3.063-1.046-5.353,0.264c-1.908,1.051-4.407,3.486-5.838,5.695c0.438-1.19,0.569-3.054-0.027-4.678
	c-0.596-1.622-2.905-2.383-4.752-1.365c-1.847,1.019-2.818,2.539-3.691,3.841c-0.18,0.272-0.212,0.414-0.003,0.533
	c0.21,0.12,0.581-0.114,0.748-0.261c0.497-0.439,1.271-1.401,2.289-2.017c1.291-0.781,2.338-0.177,2.22,1.324
	c-0.087,1.088-0.329,2.196-0.698,3.224c-1.71,4.748-6.689,17.913-6.689,17.913h4.177c0,0,5.059-13.475,5.797-14.735
	c4.63-8.39,8.244-9.162,9.816-9.091c1.569,0.07,1.222,1.512,0.736,2.233c-0.585,0.926-1.508,2.127-0.84,2.655
	c0.667,0.529,2.852,0.716,3.704-1.366C206.875,33.212,205.623,31.739,204.426,31.123z M177.344,44.111
	c1.153-3.043,4.835-12.795,4.835-12.795l-4.178-0.001c0,0-1.029,2.691-1.162,3.076c-0.098-0.646-0.284-1.355-0.719-1.943
	c-0.624-0.839-1.506-1.39-3.012-1.732c-1.503-0.339-4.018-0.124-5.632,0.534c-2.9,1.176-6.785,3.694-10.51,11.201
	c-1.185,2.436-2.036,5.436-1.561,8.194c0.677,3.931,4.082,6.002,7.822,4.643c1.315-0.478,3.492-1.72,4.566-2.606
	c1.615-1.332,2.349-2.093,3.579-3.782c-0.084,0.292-0.624,2.731-0.68,3.895c-0.093,1.84,0.922,2.901,2.765,3.118
	c2.888,0.338,7.029-2.543,7.788-5.034c0.11-0.371,0.155-0.534-0.044-0.938c-0.09-0.183-0.201-0.282-0.364,0.106
	c-0.916,2.246-3.258,3.172-4.066,3.087c-1.051-0.112-1.84-0.938-1.463-2.496C175.973,47.881,176.526,46.276,177.344,44.111z
	 M172.93,44.703c-1.242,2.456-3.638,5.055-5.219,6.175c-1.579,1.119-3.26,1.778-4.386,1.865c-2.017,0.157-3.113-1.148-3.498-3.011
	c-0.388-1.863-0.254-3.482,1.38-6.996c1.635-3.516,4.467-6.903,6.542-8.578c1.82-1.521,3.566-1.932,4.763-1.826
	c1.423,0.129,2.627,1.176,2.978,2.575c0.348,1.4-0.038,3.114-0.038,3.114S173.286,43.772,172.93,44.703z M110.87,30.722
	c-5.247-1.054-12.047,3.129-15.103,9.999c-3.057,6.869-1.211,13.821,4.036,14.877c5.246,1.056,11.827-2.174,15.313-9.976
	C118.173,38.754,116.118,31.777,110.87,30.722z M110.956,44.759c-2.305,5.939-6.884,9.85-9.787,9.181
	c-2.901-0.668-3.747-6.023-1.445-11.961c2.304-5.938,6.883-10.209,9.785-9.542C112.413,33.106,113.258,38.821,110.956,44.759z
	 M77.512,35.293c0.851-2.082-0.402-3.554-1.598-4.17c-1.197-0.612-3.062-1.046-5.354,0.264c-1.908,1.051-4.407,3.486-5.837,5.695
	c0.438-1.19,0.57-3.054-0.027-4.678c-0.597-1.622-2.905-2.383-4.751-1.365c-1.847,1.019-2.818,2.539-3.692,3.841
	c-0.179,0.272-0.211,0.414-0.001,0.533c0.209,0.12,0.58-0.114,0.747-0.261c0.498-0.439,1.272-1.401,2.289-2.017
	c1.29-0.781,2.339-0.177,2.22,1.324c-0.088,1.088-0.33,2.196-0.699,3.224C59.1,42.431,54.12,55.596,54.12,55.596h4.179
	c0,0,5.056-13.475,5.795-14.735c4.632-8.39,8.245-9.162,9.816-9.091c1.571,0.07,1.221,1.512,0.737,2.233
	c-0.585,0.926-1.507,2.127-0.841,2.655C74.475,37.188,76.66,37.375,77.512,35.293z M91.291,37.198
	c0.668,0.528,2.853,0.715,3.705-1.367c0.853-2.082-0.127-3.726-2.049-4.596c-1.957-1.01-4.339-0.639-6.509,0.094
	C80.206,33.433,74.606,40.6,74.57,48.033c-0.028,5.79,4.979,9.099,10.69,7.312c5.232-1.638,6.742-6.844,6.574-7.071
	c-0.089-0.117-0.279-0.213-0.536-0.091c-0.159,0.073-0.54,1.444-2.586,3.401c-2.271,2.172-5.151,2.229-7.16,1.163
	c-3.127-1.661-5.297-10.029,3.601-18.569c1.578-1.514,3.834-2.478,5.54-2.218c2.183,0.332,1.933,1.769,1.439,2.58
	C91.563,35.475,90.625,36.668,91.291,37.198z"/>
<g>
</g>
<g>
</g>
<g>
</g>
<g>
</g>
<g>
</g>
<g>
</g>
<g>
</g>
<g>
</g>
<g>
</g>
<g>
</g>
<g>
</g>
<g>
</g>
<g>
</g>
<g>
</g>
<g>
</g>
</svg>
