<?xml version="1.0" encoding="utf-8"?>
<!-- Generator: Adobe Illustrator 17.0.0, SVG Export Plug-In . SVG Version: 6.00 Build 0)  -->
<!DOCTYPE svg PUBLIC "-//W3C//DTD SVG 1.1//EN" "http://www.w3.org/Graphics/SVG/1.1/DTD/svg11.dtd">
<svg version="1.1" id="Layer_1" xmlns="http://www.w3.org/2000/svg" xmlns:xlink="http://www.w3.org/1999/xlink" x="0px" y="0px"
	 width="40px" height="40px" viewBox="0 0 40 40" enable-background="new 0 0 40 40" xml:space="preserve">
<g>
	<g>
		<g>
			<path fill="#FFFFFF" d="M33.867,25.426c-0.034-0.057-0.07-0.112-0.106-0.161c-0.358-0.5-0.89-0.831-1.497-0.931
				c-0.604-0.1-1.217,0.042-1.715,0.4l-6.603,4.715h-6.898c-0.325,0-0.591-0.265-0.591-0.591c0-0.326,0.265-0.591,0.591-0.591h3.839
				c1.14,0,2.067-0.927,2.067-2.067c0-0.007-0.001-0.061-0.001-0.067c-0.037-1.139-0.998-2.028-2.113-2h-7.683
				c-0.681,0.006-1.344,0.25-1.867,0.686L8.4,27.224c-0.135,0.113-0.213,0.279-0.213,0.454v7.087c0,0.327,0.265,0.591,0.591,0.591
				h14.654c0.959-0.001,1.894-0.339,2.632-0.95l7.16-5.916C34.197,27.797,34.479,26.451,33.867,25.426z M32.506,27.553l-7.194,5.942
				c-0.528,0.437-1.196,0.678-1.88,0.679H9.369v-6.22l2.676-2.228c0.314-0.262,0.712-0.408,1.116-0.412l7.697-0.001
				c0.49-0.001,0.898,0.37,0.914,0.887c0,0.488-0.397,0.886-0.886,0.886h-3.839c-0.977,0-1.772,0.795-1.772,1.772
				s0.795,1.772,1.772,1.772h7.087c0.123,0,0.243-0.038,0.344-0.11l6.758-4.826c0.243-0.175,0.539-0.243,0.836-0.196
				c0.296,0.049,0.555,0.21,0.732,0.458c0.018,0.024,0.034,0.049,0.049,0.074C33.153,26.532,33.014,27.19,32.506,27.553z"/>
		</g>
	</g>
	<g>
		<g>
			<path fill="#FFFFFF" d="M8.761,26.497H2.281v1.181H8.17v8.859H2.281v1.181h6.479c0.326,0,0.591-0.264,0.591-0.591V27.087
				C9.351,26.761,9.087,26.497,8.761,26.497z"/>
		</g>
	</g>
	<g>
		<g>
			<path fill="#FFFFFF" d="M5.235,31.812c-0.977,0-1.772,0.795-1.772,1.772s0.795,1.772,1.772,1.772s1.772-0.795,1.772-1.772
				C7.006,32.607,6.211,31.812,5.235,31.812z M5.235,34.175c-0.325,0-0.591-0.265-0.591-0.591c0-0.326,0.265-0.591,0.591-0.591
				c0.325,0,0.591,0.265,0.591,0.591C5.825,33.91,5.56,34.175,5.235,34.175z"/>
		</g>
	</g>
	<g>
		<g>
			<path fill="#FFFFFF" d="M37.128,20.591H2.872c-0.326,0-0.591,0.264-0.591,0.591c0,2.279,1.855,4.134,4.134,4.134h27.169
				c2.279,0,4.134-1.855,4.134-4.134C37.719,20.855,37.455,20.591,37.128,20.591z M33.584,24.134H6.416
				c-1.426,0-2.619-1.016-2.893-2.362h32.955C36.204,23.118,35.011,24.134,33.584,24.134z"/>
		</g>
	</g>
	<g>
		<g>
			<path fill="#FFFFFF" d="M20,5.234c-8.467,0-15.356,6.889-15.356,15.356v0.591c0,0.327,0.265,0.591,0.591,0.591h29.531
				c0.327,0,0.591-0.264,0.591-0.591v-0.591C35.356,12.123,28.468,5.234,20,5.234z M5.825,20.591
				c0-7.816,6.359-14.175,14.175-14.175s14.175,6.359,14.175,14.175H5.825z"/>
		</g>
	</g>
	<g>
		<g>
			<path fill="#FFFFFF" d="M10.286,11.972c-0.413,0.464-0.796,0.961-1.138,1.477l0.985,0.653c0.312-0.47,0.66-0.923,1.036-1.345
				L10.286,11.972z"/>
		</g>
	</g>
	<g>
		<g>
			<path fill="#FFFFFF" d="M20,7.597c-3.317,0.002-6.475,1.255-8.892,3.527l0.809,0.861c2.197-2.066,5.068-3.205,8.083-3.206
				L20,7.597z"/>
		</g>
	</g>
	<g>
		<g>
			<rect x="18.228" y="2.281" fill="#FFFFFF" width="3.544" height="1.181"/>
		</g>
	</g>
	<g>
		<g>
			<rect x="19.409" y="2.872" fill="#FFFFFF" width="1.181" height="2.953"/>
		</g>
	</g>
</g>
<g>
</g>
<g>
</g>
<g>
</g>
<g>
</g>
<g>
</g>
<g>
</g>
<g>
</g>
<g>
</g>
<g>
</g>
<g>
</g>
<g>
</g>
<g>
</g>
<g>
</g>
<g>
</g>
<g>
</g>
</svg>
