<?xml version="1.0" encoding="utf-8"?>
<!-- Generator: Adobe Illustrator 17.0.0, SVG Export Plug-In . SVG Version: 6.00 Build 0)  -->
<!DOCTYPE svg PUBLIC "-//W3C//DTD SVG 1.1//EN" "http://www.w3.org/Graphics/SVG/1.1/DTD/svg11.dtd">
<svg version="1.1" id="Layer_1" xmlns="http://www.w3.org/2000/svg" xmlns:xlink="http://www.w3.org/1999/xlink" x="0px" y="0px"
	 width="52.5px" height="40px" viewBox="0 0 52.5 40" enable-background="new 0 0 52.5 40" xml:space="preserve">
<g>
	<g>
		<g>
			<path fill="#FFFFFF" d="M37.554,15.966c0.25-0.301,0.208-0.747-0.093-0.997c-0.301-0.25-0.747-0.208-0.997,0.093l-2.77,3.338
				c-0.331,0.399-0.445,0.935-0.304,1.434c0.14,0.499,0.517,0.897,1.008,1.065l1.833,0.627c0.076,0.026,0.153,0.038,0.229,0.038
				c0.294,0,0.569-0.185,0.67-0.479c0.126-0.37-0.071-0.772-0.441-0.899l-1.833-0.627c-0.066-0.023-0.093-0.072-0.103-0.109
				c-0.011-0.037-0.014-0.093,0.031-0.147L37.554,15.966z"/>
		</g>
	</g>
	<g>
		<g>
			<path fill="#FFFFFF" d="M35.372,11.909c-0.388-0.791-1.35-1.71-3.741-1.598c-1.284,0.06-2.417,0.392-2.465,0.406
				c-0.375,0.111-0.589,0.504-0.478,0.879c0.111,0.375,0.504,0.589,0.879,0.478c0.01-0.003,1.015-0.297,2.13-0.349
				c0.814-0.038,1.835,0.046,2.287,0.622c-0.022,0.143-0.001,0.294,0.071,0.432c0.126,0.243,0.373,0.383,0.629,0.383
				c0.109,0,0.22-0.025,0.324-0.079C35.429,12.866,35.589,12.35,35.372,11.909z"/>
		</g>
	</g>
	<g>
		<g>
			<path fill="#FFFFFF" d="M45.777,16.394c-0.029-0.04-0.722-0.996-1.701-1.829c-1.821-1.551-3.146-1.414-3.937-1.026
				c-0.441,0.216-0.631,0.722-0.432,1.15c0.165,0.354,0.586,0.508,0.94,0.344c0.141-0.066,0.251-0.172,0.321-0.299
				c1.275-0.324,3.095,1.706,3.661,2.489c0.138,0.192,0.355,0.293,0.574,0.293c0.143,0,0.288-0.043,0.413-0.134
				C45.934,17.153,46.006,16.711,45.777,16.394z"/>
		</g>
	</g>
	<g>
		<g>
			<path fill="#FFFFFF" d="M19.086,23.339c-0.112-0.374-0.507-0.586-0.881-0.474l-1.855,0.557c-0.067,0.02-0.117-0.005-0.147-0.029
				c-0.03-0.024-0.065-0.068-0.06-0.138l0.312-4.326c0.028-0.39-0.265-0.729-0.655-0.757c-0.391-0.028-0.729,0.265-0.757,0.655
				l-0.312,4.326c-0.037,0.517,0.182,1.019,0.587,1.344c0.283,0.227,0.632,0.346,0.986,0.346c0.152,0,0.304-0.022,0.453-0.067
				l1.855-0.557C18.986,24.108,19.198,23.713,19.086,23.339z"/>
		</g>
	</g>
	<g>
		<g>
			<path fill="#FFFFFF" d="M12.867,18.177c-0.099-0.236-0.296-0.414-0.541-0.49c-2.681-0.83-5.671,1.451-5.797,1.548
				c-0.309,0.239-0.365,0.683-0.127,0.992c0.238,0.309,0.683,0.366,0.992,0.128c0.007-0.005,0.666-0.509,1.578-0.918
				c0.616-0.276,1.456-0.553,2.267-0.513l-0.328,0.64c-0.178,0.348-0.04,0.774,0.308,0.952c0.103,0.053,0.213,0.078,0.322,0.078
				c0.257,0,0.505-0.141,0.631-0.385l0.667-1.304C12.957,18.678,12.966,18.412,12.867,18.177z"/>
		</g>
	</g>
	<g>
		<g>
			<path fill="#FFFFFF" d="M23.263,14.213c-0.159-0.012-3.911-0.27-5.692,1.9c-0.162,0.198-0.228,0.456-0.181,0.707
				c0.047,0.251,0.201,0.467,0.424,0.593l1.275,0.721c0.11,0.062,0.23,0.092,0.348,0.092c0.247,0,0.487-0.129,0.617-0.36
				c0.192-0.34,0.073-0.772-0.268-0.964l-0.628-0.355c1.47-1.088,3.958-0.925,3.999-0.922c0.39,0.029,0.729-0.263,0.759-0.652
				C23.945,14.582,23.653,14.242,23.263,14.213z"/>
		</g>
	</g>
	<g>
		<g>
			<path fill="#FFFFFF" d="M37.679,24.975c-0.647-1.319-1.769-2.307-3.159-2.782c-1.391-0.475-2.882-0.38-4.201,0.267
				c-0.646,0.317-1.213,0.749-1.679,1.27l0.052-0.239c0.632-2.522,0.186-5.221-1.224-7.407c-0.572-0.886-0.958-1.862-1.149-2.899
				l-0.352-1.917c-0.566-3.081-3.25-5.334-6.382-5.358C14.38,5.872,9.349,7.381,5.028,10.279c-2.602,1.744-3.601,5.103-2.377,7.986
				l0.762,1.794c0.412,0.971,0.627,1.998,0.637,3.053c0.027,2.6,1.141,5.099,3.057,6.856l5.967,5.818
				c1.288,1.256,3.001,1.932,4.751,1.932c0.653,0,1.311-0.094,1.953-0.287l2.447-0.734c2.366-0.71,4.163-2.651,4.69-5.065
				l1.113-5.101c0.11,0.029,0.227,0.032,0.342,0.005c2.968-0.709,6.067,0.27,8.088,2.555l0.288,0.325
				c0.136,0.153,0.33,0.239,0.53,0.239c0.046,0,0.093-0.005,0.139-0.014c0.247-0.049,0.449-0.227,0.531-0.465
				C38.421,27.787,38.326,26.294,37.679,24.975z M27.317,23.156c-0.002,0.007-0.004,0.015-0.005,0.022l-1.78,8.153
				c-0.417,1.912-1.841,3.448-3.714,4.011l-2.447,0.734c-1.874,0.562-3.908,0.063-5.309-1.303l-5.975-5.826
				c-0.005-0.005-0.011-0.01-0.016-0.015c-1.633-1.494-2.583-3.621-2.605-5.834c-0.013-1.241-0.265-2.449-0.75-3.591l-0.762-1.794
				c-0.959-2.259-0.176-4.891,1.862-6.257c4.032-2.704,8.721-4.13,13.572-4.13c0.062,0,0.125,0,0.187,0.001
				c2.454,0.019,4.557,1.784,5,4.198l0.352,1.917c0.224,1.22,0.679,2.368,1.351,3.411C27.479,18.711,27.857,21.009,27.317,23.156z
				 M30.294,24.894c-0.269,0-0.539,0.011-0.809,0.034c0.38-0.502,0.875-0.912,1.457-1.197c0.98-0.48,2.088-0.551,3.12-0.198
				c1.033,0.353,1.866,1.087,2.346,2.066c0.287,0.585,0.428,1.216,0.419,1.85C35.035,25.795,32.701,24.894,30.294,24.894z"/>
		</g>
	</g>
	<g>
		<g>
			<path fill="#FFFFFF" d="M23.21,25.288c-0.072-0.241-0.268-0.426-0.513-0.485c-0.245-0.059-0.503,0.017-0.677,0.2l-0.3,0.314
				c-2.106,2.208-5.24,3.069-8.179,2.248c-0.249-0.07-0.515,0.002-0.696,0.186c-0.181,0.184-0.247,0.452-0.173,0.699
				c0.714,2.38,2.905,3.92,5.271,3.92c0.522,0,1.053-0.075,1.578-0.233C22.427,31.266,24.081,28.193,23.21,25.288z M19.115,30.782
				c-1.045,0.314-2.15,0.202-3.111-0.316c-0.57-0.307-1.05-0.735-1.411-1.251c2.675,0.327,5.37-0.479,7.431-2.24
				C21.98,28.69,20.846,30.262,19.115,30.782z"/>
		</g>
	</g>
	<g>
		<g>
			<path fill="#FFFFFF" d="M47.675,7.2c-4.209-3.059-9.183-4.758-14.383-4.916c-3.131-0.095-5.898,2.056-6.579,5.113l-0.385,1.726
				c-0.085,0.381,0.155,0.76,0.537,0.845c0.382,0.085,0.76-0.155,0.845-0.537l0.385-1.726c0.534-2.395,2.699-4.081,5.155-4.006
				c4.915,0.148,9.616,1.755,13.594,4.646c1.985,1.443,2.669,4.102,1.625,6.323l-0.829,1.764c-0.528,1.123-0.826,2.321-0.885,3.561
				c-0.106,2.211-1.135,4.3-2.823,5.732c-0.006,0.005-0.011,0.01-0.017,0.015l-6.191,5.596c-1.451,1.312-3.503,1.734-5.354,1.101
				l-2.418-0.826c-0.077-0.026-0.153-0.054-0.228-0.083c-0.363-0.143-0.775,0.036-0.917,0.4c-0.143,0.364,0.036,0.775,0.4,0.917
				c0.095,0.037,0.192,0.073,0.287,0.105l2.417,0.826c0.719,0.246,1.461,0.365,2.198,0.365c1.661,0,3.294-0.608,4.564-1.756
				l6.182-5.589c1.981-1.684,3.189-4.139,3.313-6.736c0.051-1.053,0.304-2.072,0.752-3.026l0.829-1.764
				C51.081,12.435,50.209,9.041,47.675,7.2z"/>
		</g>
	</g>
</g>
<g>
</g>
<g>
</g>
<g>
</g>
<g>
</g>
<g>
</g>
<g>
</g>
<g>
</g>
<g>
</g>
<g>
</g>
<g>
</g>
<g>
</g>
<g>
</g>
<g>
</g>
<g>
</g>
<g>
</g>
</svg>
