<?xml version="1.0" encoding="utf-8"?>
<!-- Generator: Adobe Illustrator 17.0.0, SVG Export Plug-In . SVG Version: 6.00 Build 0)  -->
<!DOCTYPE svg PUBLIC "-//W3C//DTD SVG 1.1//EN" "http://www.w3.org/Graphics/SVG/1.1/DTD/svg11.dtd">
<svg version="1.1" id="Layer_1" xmlns="http://www.w3.org/2000/svg" xmlns:xlink="http://www.w3.org/1999/xlink" x="0px" y="0px"
	 width="40px" height="40px" viewBox="0 0 40 40" enable-background="new 0 0 40 40" xml:space="preserve">
<path fill="#FFFFFF" d="M7.521,37.719h24.957c0.656,0,1.187-0.531,1.187-1.187V10.7c0-0.656-0.531-1.187-1.187-1.187h-5.751V9.009
	c0-3.71-3.018-6.728-6.728-6.728s-6.728,3.018-6.728,6.728v0.504H7.521c-0.656,0-1.187,0.531-1.187,1.187v25.831
	C6.334,37.187,6.866,37.719,7.521,37.719z M15.647,9.009c0-2.4,1.953-4.353,4.353-4.353s4.353,1.953,4.353,4.353v0.504h-8.706V9.009
	z M8.709,11.887h4.564v1.979c0,0.656,0.531,1.187,1.187,1.187s1.187-0.531,1.187-1.187v-1.979h8.706v1.979
	c0,0.656,0.531,1.187,1.187,1.187c0.656,0,1.187-0.531,1.187-1.187v-1.979h4.564v23.457H8.709L8.709,11.887L8.709,11.887z"/>
<g>
</g>
<g>
</g>
<g>
</g>
<g>
</g>
<g>
</g>
<g>
</g>
<g>
</g>
<g>
</g>
<g>
</g>
<g>
</g>
<g>
</g>
<g>
</g>
<g>
</g>
<g>
</g>
<g>
</g>
</svg>
